<svg id="visual" viewBox="0 0 900 900" width="900" height="900" xmlns="http://www.w3.org/2000/svg" xmlns:xlink="http://www.w3.org/1999/xlink" version="1.1"><g transform="translate(419.12788941736835 376.29756376575665)"><path d="M107 -141.5C134.7 -104.2 150.4 -66.8 192 -7.7C233.5 51.3 300.8 131.9 298.7 207.3C296.7 282.6 225.3 352.7 139.4 384.8C53.5 416.9 -47 411 -97.3 354.7C-147.6 298.5 -147.9 192 -165.1 117.1C-182.4 42.2 -216.8 -1 -230.6 -61.1C-244.3 -121.2 -237.5 -198.1 -195.7 -232.9C-153.8 -267.7 -76.9 -260.3 -18.6 -238.1C39.6 -215.9 79.3 -178.8 107 -141.5" fill="#BB004B"></path></g></svg>