<svg id="visual" viewBox="0 0 900 900" width="900" height="900" xmlns="http://www.w3.org/2000/svg" xmlns:xlink="http://www.w3.org/1999/xlink" version="1.1"><g transform="translate(444.9444776151511 357.3826653396296)"><path d="M178 -173.1C244.1 -156.6 320.5 -113.3 338.9 -53.2C357.2 6.8 317.6 83.7 277.1 165.8C236.6 248 195.3 335.4 123.6 378.2C52 421 -49.9 419.1 -100 362.7C-150 306.3 -148.2 195.4 -190.3 114C-232.5 32.5 -318.6 -19.4 -331.6 -78.1C-344.6 -136.7 -284.5 -202 -217 -218.3C-149.6 -234.5 -74.8 -201.6 -9.4 -190.4C55.9 -179.2 111.8 -189.5 178 -173.1" fill="#BB004B"></path></g></svg>