<svg id="visual" viewBox="0 0 900 900" width="900" height="900" xmlns="http://www.w3.org/2000/svg" xmlns:xlink="http://www.w3.org/1999/xlink" version="1.1"><g transform="translate(474.93090828015136 446.735561108649)"><path d="M199 -227.8C250.5 -193.9 279.9 -124.2 275.2 -61.7C270.5 0.8 231.8 56.2 189.9 91.7C148 127.2 102.9 142.9 52.9 173.2C2.9 203.4 -51.9 248.3 -126.5 259.4C-201 270.5 -295.4 247.7 -319.1 191.5C-342.9 135.4 -296 45.7 -257.4 -23.2C-218.8 -92.1 -188.5 -140.3 -146.9 -176C-105.4 -211.6 -52.7 -234.8 10.5 -247.3C73.7 -259.8 147.4 -261.7 199 -227.8" fill="#BB004B"></path></g></svg>