<svg id="visual" viewBox="0 0 900 900" width="900" height="900" xmlns="http://www.w3.org/2000/svg" xmlns:xlink="http://www.w3.org/1999/xlink" version="1.1"><g transform="translate(460.0143801129023 441.40191087202265)"><path d="M139.9 -191.3C173 -138.9 186 -87 220.6 -19.8C255.3 47.4 311.7 130 298.1 189.7C284.6 249.4 201.1 286.3 115.4 318C29.6 349.6 -58.4 375.9 -102.3 336.1C-146.3 296.3 -146.2 190.3 -181.4 112.8C-216.6 35.2 -287 -13.9 -310.9 -85.4C-334.7 -156.9 -312 -250.8 -252.4 -298.7C-192.8 -346.5 -96.4 -348.2 -21.5 -322.6C53.4 -296.9 106.7 -243.8 139.9 -191.3" fill="#BB004B"></path></g></svg>