<svg id="visual" viewBox="0 0 900 900" width="900" height="900" xmlns="http://www.w3.org/2000/svg" xmlns:xlink="http://www.w3.org/1999/xlink" version="1.1"><g transform="translate(428.99078411468224 379.1401133915101)"><path d="M156.9 -146.7C224.2 -130.5 314 -100.8 318.1 -58.8C322.3 -16.8 240.8 37.6 188.6 91C136.4 144.3 113.5 196.7 61.3 251.8C9.1 307 -72.4 364.9 -122.9 343.8C-173.3 322.7 -192.8 222.6 -218.8 143C-244.9 63.4 -277.5 4.4 -276.2 -56.6C-274.9 -117.7 -239.7 -180.6 -188 -199.6C-136.3 -218.7 -68.1 -193.7 -11.7 -179.8C44.8 -165.9 89.6 -163 156.9 -146.7" fill="#BB004B"></path></g></svg>