<svg id="visual" viewBox="0 0 900 900" width="900" height="900" xmlns="http://www.w3.org/2000/svg" xmlns:xlink="http://www.w3.org/1999/xlink" version="1.1"><g transform="translate(459.086531476809 485.38965682554783)"><path d="M240 -251.4C306.5 -230.3 352.7 -150.3 353.7 -72.9C354.8 4.4 310.8 79.2 256.6 124.6C202.3 170 137.9 186 83.9 186.8C29.8 187.6 -14 173.1 -72.3 166C-130.6 158.9 -203.4 159.2 -267.7 119.7C-331.9 80.3 -387.5 1.1 -367.9 -57C-348.4 -115.2 -253.6 -152.2 -179.7 -172C-105.8 -191.8 -52.9 -194.4 16.9 -214.6C86.8 -234.7 173.6 -272.5 240 -251.4" fill="#BB004B"></path></g></svg>